<svg xmlns="http://www.w3.org/2000/svg" xmlns:xlink="http://www.w3.org/1999/xlink" width="35" height="35" viewBox="0 0 35 35">
  <defs>
    <clipPath id="clip-About_Us">
      <rect width="35" height="35"/>
    </clipPath>
  </defs>
  <g id="About_Us" data-name="About Us" clip-path="url(#clip-About_Us)">
    <g id="Group_309" data-name="Group 309" transform="translate(6)">
      <path id="Path_549" data-name="Path 549" d="M447.941,247.9a.468.468,0,0,0-.107.054c.023.115.046.237.069.351a9.929,9.929,0,0,1,.13,3.492,8.457,8.457,0,0,1-1.711,4.011c-1.131,1.413-2.323,2.773-3.507,4.141a17.675,17.675,0,0,0-2.674,3.858,7.722,7.722,0,0,0-.7,4.294,7.572,7.572,0,0,0,1.375,3.6,28.907,28.907,0,0,0,1.841,2.368,20.772,20.772,0,0,0,1.7,1.582c.069.061.183.061.275.092a1.165,1.165,0,0,0,.061-.283,10.2,10.2,0,0,1,.008-1.742,7.78,7.78,0,0,1,.634-2.177,15.986,15.986,0,0,1,3.041-3.8c1.085-1.1,2.155-2.223,3.171-3.392a7.5,7.5,0,0,0,1.757-3.5,9.93,9.93,0,0,0,.122-3.224,10.441,10.441,0,0,0-1.222-3.881,31.311,31.311,0,0,0-1.88-2.964C449.568,249.772,448.728,248.855,447.941,247.9Z" transform="translate(-435.245 -247.388)" fill="#fff"/>
      <path id="Path_550" data-name="Path 550" d="M397.146,665.886c2.789,0,5.585.008,8.374-.008a6.762,6.762,0,0,0,1.406-.191,8.918,8.918,0,0,0,1.161-.374,3.485,3.485,0,0,0,.619-.283c.351-.2.351-.4,0-.626a1.9,1.9,0,0,0-.52-.245c-.634-.16-1.276-.329-1.925-.428-.917-.138-1.849-.237-2.773-.306-1.543-.122-3.079-.252-4.622-.283-1.559-.038-3.117.015-4.676.069-1.329.046-2.659.1-3.973.229-1.177.122-2.338.336-3.5.558a3.8,3.8,0,0,0-1.154.474c-.3.176-.306.351,0,.5a13.806,13.806,0,0,0,1.475.588c.115.046.267.031.352.107a1.333,1.333,0,0,0,.909.222Q392.723,665.883,397.146,665.886Z" transform="translate(-385.33 -630.894)" fill="#fff"/>
      <path id="Path_551" data-name="Path 551" d="M526.8,416.5a3.834,3.834,0,0,0-.092.443,5.223,5.223,0,0,1-.795,2.093,17.5,17.5,0,0,1-2.582,3.125c-1.07,1.123-2.185,2.193-3.224,3.331a6.659,6.659,0,0,0-1.948,3.889,5.582,5.582,0,0,0,.94,3.652c.038.061.122.092.252.191-.046-.313-.107-.527-.115-.749a5.663,5.663,0,0,1,.886-3.071,22.233,22.233,0,0,1,3.125-3.6c.6-.626,1.215-1.238,1.78-1.887a8.932,8.932,0,0,0,1.933-3.308,7.5,7.5,0,0,0-.008-3.812A2.188,2.188,0,0,0,526.8,416.5Z" transform="translate(-507.978 -403.107)" fill="#fff"/>
      <path id="Path_552" data-name="Path 552" d="M427.2,259.6a.467.467,0,0,0,.092.038c.038-.137.092-.275.122-.413.038-.176.038-.359.084-.535a8.774,8.774,0,0,1,1.643-3.316c1.184-1.543,2.46-3.018,3.69-4.523a15.1,15.1,0,0,0,2.659-4.187,5.445,5.445,0,0,0,.306-3.117c-.16-.718-.436-1.406-.665-2.109-.023-.069-.061-.138-.107-.237-.076.122-.092.145-.092.16a1.226,1.226,0,0,0,0,.168,8.948,8.948,0,0,1-.642,3.194,16.557,16.557,0,0,1-2.957,4.485,32.867,32.867,0,0,0-3.247,4.088,8.862,8.862,0,0,0-1.07,2.72A9.939,9.939,0,0,0,427.2,259.6Z" transform="translate(-423.726 -241.2)" fill="#fff"/>
      <path id="Path_554" data-name="Path 554" d="M397.054,665.794H388.2a1.333,1.333,0,0,1-.909-.222c-.084-.069-.237-.061-.351-.107a13.792,13.792,0,0,1-1.475-.588c-.306-.153-.3-.329,0-.5a3.877,3.877,0,0,1,1.154-.474c1.161-.222,2.33-.435,3.5-.558,1.322-.138,2.651-.191,3.973-.229,1.559-.053,3.117-.107,4.676-.069,1.543.038,3.087.168,4.622.283.924.069,1.857.168,2.773.306.649.1,1.284.267,1.925.428a1.9,1.9,0,0,1,.52.244c.351.214.359.428,0,.627a3.774,3.774,0,0,1-.619.283,8.925,8.925,0,0,1-1.161.374,7.245,7.245,0,0,1-1.406.191C402.639,665.809,399.85,665.794,397.054,665.794Z" transform="translate(-385.237 -630.802)" fill="#fff"/>
      <g id="Group_22756" data-name="Group 22756" transform="translate(3.181 0.008)">
        <path id="Path_553" data-name="Path 553" d="M447.756,247.9c.795.955,1.635,1.872,2.361,2.865A31.316,31.316,0,0,1,452,253.729a10.529,10.529,0,0,1,1.222,3.881,9.714,9.714,0,0,1-.122,3.224,7.463,7.463,0,0,1-1.757,3.5c-1.016,1.161-2.086,2.292-3.171,3.392a16.178,16.178,0,0,0-3.041,3.8,7.369,7.369,0,0,0-.634,2.177,10.194,10.194,0,0,0-.008,1.742,1.342,1.342,0,0,1-.061.283c-.092-.031-.206-.031-.275-.092a19.593,19.593,0,0,1-1.7-1.582c-.657-.749-1.253-1.559-1.841-2.368a7.512,7.512,0,0,1-1.375-3.6,7.722,7.722,0,0,1,.7-4.294,17.672,17.672,0,0,1,2.674-3.858c1.184-1.368,2.384-2.728,3.507-4.141a8.31,8.31,0,0,0,1.711-4.011,9.762,9.762,0,0,0-.13-3.492c-.023-.115-.046-.237-.069-.351A.231.231,0,0,0,447.756,247.9Z" transform="translate(-438.242 -247.396)" fill="#fff"/>
        <path id="Path_555" data-name="Path 555" d="M526.713,416.5a1.593,1.593,0,0,1,.145.29,7.415,7.415,0,0,1,.008,3.813,8.931,8.931,0,0,1-1.933,3.308c-.565.649-1.184,1.261-1.78,1.887a21.871,21.871,0,0,0-3.125,3.6,5.748,5.748,0,0,0-.886,3.071,4.852,4.852,0,0,0,.115.749c-.13-.092-.214-.13-.252-.191a5.627,5.627,0,0,1-.94-3.652,6.748,6.748,0,0,1,1.948-3.889c1.039-1.146,2.155-2.216,3.224-3.331a17.188,17.188,0,0,0,2.582-3.125,5.252,5.252,0,0,0,.794-2.093C526.629,416.828,526.667,416.714,526.713,416.5Z" transform="translate(-511.071 -403.114)" fill="#fff"/>
        <path id="Path_556" data-name="Path 556" d="M427.167,259.69a10.065,10.065,0,0,1-.191-3.576,8.673,8.673,0,0,1,1.07-2.72,32.182,32.182,0,0,1,3.247-4.088,16.557,16.557,0,0,0,2.957-4.485,9.152,9.152,0,0,0,.642-3.194v-.168c0-.023.023-.038.092-.16.046.1.084.168.107.237.229.7.5,1.391.665,2.109a5.451,5.451,0,0,1-.306,3.117,14.927,14.927,0,0,1-2.659,4.187c-1.238,1.505-2.506,2.98-3.69,4.523a8.775,8.775,0,0,0-1.643,3.316c-.038.176-.046.359-.084.535a4.223,4.223,0,0,1-.122.413A.182.182,0,0,0,427.167,259.69Z" transform="translate(-426.875 -241.3)" fill="#fff"/>
      </g>
    </g>
  </g>
</svg>
