<svg xmlns="http://www.w3.org/2000/svg" xmlns:xlink="http://www.w3.org/1999/xlink" width="40" height="40" viewBox="0 0 40 40">
  <defs>
    <clipPath id="clip-Artboard_10">
      <rect width="40" height="40"/>
    </clipPath>
  </defs>
  <g id="Artboard_10" data-name="Artboard – 10" clip-path="url(#clip-Artboard_10)">
    <path id="Path_39678" data-name="Path 39678" d="M-745.1-10.092c-11.267.091-20.03-9.526-20-20.028a20.018,20.018,0,0,1,20.072-19.968,20.163,20.163,0,0,1,19.927,20.1A19.954,19.954,0,0,1-745.1-10.092Zm17.365-21.351c-.127-.781-.219-1.537-.377-2.278a17.2,17.2,0,0,0-3.174-6.888c-.107-.14-.177-.276-.429-.171-.983.41-1.98.786-2.974,1.169-.3.117-.615.215-.942.329a37.263,37.263,0,0,1,1.2,7.839Zm-30.987,12.077,4.09-1.531c-.251-1.309-.537-2.593-.733-3.891s-.3-2.631-.449-3.932h-6.6C-762.337-25.789-760.5-21.158-758.718-19.366Zm24.293-9.372a37.227,37.227,0,0,1-1.2,7.838l.416.155c1.088.409,2.19.785,3.257,1.244a.532.532,0,0,0,.792-.215,17.362,17.362,0,0,0,2.946-6.279c.214-.892.33-1.808.5-2.744ZM-754.8-39.384c-1.153-.439-2.346-.879-3.527-1.353a.43.43,0,0,0-.614.163,17.162,17.162,0,0,0-2.892,6.079c-.256,1-.429,2.016-.644,3.048h6.6C-755.51-34.117-755.154-36.749-754.8-39.384Zm17.7,10.66h-6.636v6.585l5.583.641A38.736,38.736,0,0,0-737.1-28.724Zm-9.353-2.714v-6.591l-5.6-.635a38.314,38.314,0,0,0-1.038,7.226Zm2.708-6.536v6.529h6.644a36.6,36.6,0,0,0-1.052-7.221Zm-9.353,9.239a38.2,38.2,0,0,0,1.052,7.227l5.592-.689v-6.538Zm1.994-12.551a24.867,24.867,0,0,0,4.653.528v-6.416C-748.933-45.9-750.057-43.656-751.1-41.287Zm7.352,28.219c2.022-.628,4.107-4.035,4.575-5.836a25.1,25.1,0,0,0-4.575-.515Zm-2.708-.008v-6.37l-4.611.51C-750.253-16.554-748.316-13.654-746.456-13.075Zm7.39-28.164c-1.076-2.426-2.2-4.67-4.67-5.932v6.441Zm.493-4.791,2.232,4.242,2.877-1.086A15.4,15.4,0,0,0-738.573-46.03Zm-13.043,31.886-2.233-4.238-2.878,1.081A15.4,15.4,0,0,0-751.615-14.144Zm13.17.063a16.66,16.66,0,0,0,5.011-3.13c-.989-.342-1.873-.656-2.766-.94-.086-.027-.289.11-.344.218C-737.2-16.638-737.829-15.335-738.445-14.081ZM-756.73-42.832c.974.294,1.844.565,2.722.809a.393.393,0,0,0,.336-.165c.662-1.315,1.307-2.638,1.937-3.921A14.864,14.864,0,0,0-756.73-42.832Z" transform="translate(765.098 50.089)" fill="#fffcfa"/>
  </g>
</svg>
