<svg xmlns="http://www.w3.org/2000/svg" xmlns:xlink="http://www.w3.org/1999/xlink" width="35" height="35" viewBox="0 0 35 35">
  <defs>
    <clipPath id="clip-Career_Club">
      <rect width="35" height="35"/>
    </clipPath>
  </defs>
  <g id="Career_Club" data-name="Career Club" clip-path="url(#clip-Career_Club)">
    <g id="Group_10530" data-name="Group 10530" transform="translate(-951 -510.148)">
      <g id="Group_10529" data-name="Group 10529" transform="translate(951 511.149)">
        <g id="Group_10528" data-name="Group 10528">
          <path id="Union_20" data-name="Union 20" d="M10.069,22.668c-.018-.008-.032-.011-.046-.017a.672.672,0,0,1-.423-.892.789.789,0,0,1,.974-.469,12.737,12.737,0,0,0,7.527,0,.089.089,0,0,1,.018-.008.8.8,0,0,1,1,.441.752.752,0,0,1-.5.945,14.362,14.362,0,0,1-8.54,0ZM0,10.359A12.147,12.147,0,0,1,5.031.616a.817.817,0,0,1,.988.1.684.684,0,0,1-.014,1.022,10.764,10.764,0,0,0-4.444,8.622.752.752,0,0,1-.779.722A.753.753,0,0,1,0,10.359Zm27.072-.014a10.808,10.808,0,0,0-5.031-9.02.694.694,0,0,1-.2-1.013A.822.822,0,0,1,22.937.131a12.335,12.335,0,0,1,5.7,10.214.782.782,0,0,1-1.561,0Z" transform="translate(3.343 7.466)" fill="#fff"/>
          <path id="Union_69" data-name="Union 69" d="M24.877,32.45a.773.773,0,0,1-.863-.689v-.648c0-.014,0-.029,0-.043a4.339,4.339,0,0,1,4.394-4.293h2.238A4.343,4.343,0,0,1,35,31.113v.648a.774.774,0,0,1-.863.689Zm-24.014,0A.774.774,0,0,1,0,31.761v-.648c0-.014,0-.029,0-.043a4.34,4.34,0,0,1,4.394-4.293H6.633a4.342,4.342,0,0,1,4.353,4.336v.648a.773.773,0,0,1-.863.689Zm25.373-9.587A3.24,3.24,0,1,1,29.476,26.1,3.241,3.241,0,0,1,26.236,22.863Zm-24.014,0A3.241,3.241,0,1,1,5.462,26.1,3.241,3.241,0,0,1,2.221,22.863Zm10.37-10.033c-.431,0-.861-.241-.861-.688V11.45a4.342,4.342,0,0,1,4.395-4.294h2.236a4.343,4.343,0,0,1,4.355,4.338v.648c0,.447-.431.688-.864.688Zm1.36-9.585a3.24,3.24,0,1,1,3.241,3.241A3.244,3.244,0,0,1,13.951,3.244Z" transform="translate(0 0)" fill="#fff"/>
        </g>
      </g>
    </g>
  </g>
</svg>
