<svg xmlns="http://www.w3.org/2000/svg" xmlns:xlink="http://www.w3.org/1999/xlink" width="100" height="100" viewBox="0 0 100 100">
  <defs>
    <clipPath id="clip-Logo">
      <rect width="100" height="100"/>
    </clipPath>
  </defs>
  <g id="Logo" clip-path="url(#clip-Logo)">
    <g id="logo-2" data-name="logo" transform="translate(-253 -238.2)">
      <g id="Group_312" data-name="Group 312" transform="translate(253 241.2)">
        <g id="Group_311" data-name="Group 311" transform="translate(0 0)">
          <g id="Group_309" data-name="Group 309" transform="translate(20.707)">
            <path id="Path_549" data-name="Path 549" d="M456.923,247.9a.958.958,0,0,0-.219.11c.047.235.094.485.141.72a20.349,20.349,0,0,1,.266,7.156,17.334,17.334,0,0,1-3.508,8.221c-2.318,2.9-4.76,5.684-7.188,8.487a36.224,36.224,0,0,0-5.481,7.908,15.828,15.828,0,0,0-1.441,8.8,15.518,15.518,0,0,0,2.819,7.375,59.243,59.243,0,0,0,3.774,4.854,42.566,42.566,0,0,0,3.476,3.241c.141.125.376.125.564.188a2.389,2.389,0,0,0,.125-.579,20.9,20.9,0,0,1,.016-3.57,15.945,15.945,0,0,1,1.3-4.463,32.764,32.764,0,0,1,6.232-7.783c2.224-2.255,4.416-4.557,6.5-6.953a15.369,15.369,0,0,0,3.6-7.172,20.355,20.355,0,0,0,.251-6.608,21.4,21.4,0,0,0-2.505-7.955,64.17,64.17,0,0,0-3.852-6.076C460.259,251.737,458.536,249.857,456.923,247.9Z" transform="translate(-430.904 -246.851)" fill="#e66226"/>
            <path id="Path_550" data-name="Path 550" d="M409.541,668.779c5.716,0,11.447.016,17.163-.016a13.862,13.862,0,0,0,2.881-.391,18.319,18.319,0,0,0,2.38-.767,7.159,7.159,0,0,0,1.268-.579c.72-.407.72-.83,0-1.284a3.891,3.891,0,0,0-1.065-.5c-1.3-.329-2.615-.673-3.946-.877-1.879-.282-3.79-.485-5.684-.626-3.163-.25-6.311-.517-9.474-.579-3.195-.078-6.389.031-9.583.141-2.725.094-5.449.2-8.143.47-2.412.251-4.792.689-7.172,1.143a7.778,7.778,0,0,0-2.365.971c-.611.36-.626.72,0,1.034a28.251,28.251,0,0,0,3.022,1.206c.235.094.548.063.72.219a2.732,2.732,0,0,0,1.863.454Q400.474,668.771,409.541,668.779Z" transform="translate(-385.322 -597.06)" fill="#e66226"/>
            <path id="Path_551" data-name="Path 551" d="M535.9,416.5a7.858,7.858,0,0,0-.188.908,10.707,10.707,0,0,1-1.629,4.291,35.883,35.883,0,0,1-5.293,6.4c-2.192,2.3-4.479,4.494-6.608,6.827a13.647,13.647,0,0,0-3.993,7.971,11.441,11.441,0,0,0,1.926,7.485c.078.125.25.188.517.391-.094-.642-.219-1.08-.235-1.535a11.606,11.606,0,0,1,1.816-6.295c1.707-2.819,4.165-5.011,6.4-7.376,1.221-1.284,2.49-2.537,3.649-3.868a18.305,18.305,0,0,0,3.962-6.78,15.365,15.365,0,0,0-.016-7.814A4.512,4.512,0,0,0,535.9,416.5Z" transform="translate(-497.321 -389.049)" fill="#e66226"/>
            <path id="Path_552" data-name="Path 552" d="M427.5,278.908a.954.954,0,0,0,.188.078c.078-.282.188-.564.251-.846.078-.36.078-.736.172-1.1a17.982,17.982,0,0,1,3.367-6.8c2.427-3.163,5.042-6.185,7.563-9.27a30.95,30.95,0,0,0,5.449-8.581,11.16,11.16,0,0,0,.626-6.389c-.329-1.472-.893-2.881-1.362-4.322-.047-.141-.125-.282-.219-.485-.157.251-.188.3-.188.329a2.521,2.521,0,0,0,0,.345,18.34,18.34,0,0,1-1.315,6.546c-1.362,3.492-3.7,6.358-6.06,9.192-2.286,2.74-4.807,5.277-6.655,8.378a18.162,18.162,0,0,0-2.192,5.575C426.61,274.022,427.127,276.465,427.5,278.908Z" transform="translate(-420.384 -241.2)" fill="#e66226"/>
            <path id="Path_554" data-name="Path 554" d="M409.456,668.695H391.307a2.732,2.732,0,0,1-1.863-.454c-.172-.141-.485-.125-.72-.219a28.238,28.238,0,0,1-3.022-1.206c-.626-.313-.611-.673,0-1.033a7.943,7.943,0,0,1,2.365-.971c2.38-.454,4.776-.893,7.172-1.143,2.709-.282,5.434-.391,8.143-.47,3.195-.109,6.389-.219,9.583-.141,3.163.078,6.326.344,9.474.579,1.895.141,3.805.345,5.684.626,1.331.2,2.631.548,3.946.877a3.9,3.9,0,0,1,1.065.5c.72.438.736.877,0,1.284a7.729,7.729,0,0,1-1.268.579,18.313,18.313,0,0,1-2.38.767,14.832,14.832,0,0,1-2.881.391C420.9,668.726,415.188,668.695,409.456,668.695Z" transform="translate(-385.237 -596.975)" fill="#e66226"/>
            <g id="Group_22756" data-name="Group 22756" transform="translate(6.52 0.016)">
              <path id="Path_553" data-name="Path 553" d="M456.755,247.9c1.629,1.957,3.351,3.837,4.839,5.872a64.19,64.19,0,0,1,3.852,6.076,21.58,21.58,0,0,1,2.505,7.955,19.91,19.91,0,0,1-.251,6.608,15.3,15.3,0,0,1-3.6,7.172c-2.083,2.38-4.275,4.7-6.5,6.953a33.157,33.157,0,0,0-6.232,7.783,15.1,15.1,0,0,0-1.3,4.463,20.889,20.889,0,0,0-.016,3.57,2.751,2.751,0,0,1-.125.579c-.188-.063-.423-.063-.564-.188a40.135,40.135,0,0,1-3.476-3.241c-1.347-1.535-2.568-3.195-3.774-4.854a15.4,15.4,0,0,1-2.819-7.375,15.827,15.827,0,0,1,1.441-8.8,36.222,36.222,0,0,1,5.481-7.908c2.427-2.8,4.886-5.59,7.188-8.487a17.032,17.032,0,0,0,3.508-8.221,20.01,20.01,0,0,0-.266-7.156c-.047-.235-.094-.485-.141-.72A.473.473,0,0,0,456.755,247.9Z" transform="translate(-437.255 -246.866)" fill="#e66226"/>
              <path id="Path_555" data-name="Path 555" d="M535.819,416.5a3.279,3.279,0,0,1,.3.6,15.2,15.2,0,0,1,.016,7.814,18.3,18.3,0,0,1-3.962,6.78c-1.159,1.331-2.427,2.584-3.649,3.868-2.255,2.365-4.7,4.557-6.4,7.376a11.78,11.78,0,0,0-1.816,6.3,9.962,9.962,0,0,0,.235,1.535c-.266-.188-.439-.266-.517-.392a11.533,11.533,0,0,1-1.926-7.485,13.829,13.829,0,0,1,3.993-7.971c2.13-2.349,4.416-4.541,6.608-6.827a35.227,35.227,0,0,0,5.293-6.4,10.763,10.763,0,0,0,1.628-4.291C535.647,417.173,535.725,416.938,535.819,416.5Z" transform="translate(-503.761 -389.065)" fill="#e66226"/>
              <path id="Path_556" data-name="Path 556" d="M427.474,278.992c-.376-2.427-.893-4.87-.392-7.329a17.777,17.777,0,0,1,2.192-5.575c1.832-3.1,4.369-5.637,6.655-8.378,2.365-2.834,4.7-5.7,6.06-9.192a18.758,18.758,0,0,0,1.315-6.546v-.344c0-.047.047-.078.188-.329.094.2.172.344.219.485.47,1.441,1.034,2.85,1.362,4.322a11.174,11.174,0,0,1-.626,6.389A30.6,30.6,0,0,1,439,261.078c-2.537,3.085-5.136,6.107-7.563,9.27a17.983,17.983,0,0,0-3.367,6.8c-.078.36-.094.736-.172,1.1a8.667,8.667,0,0,1-.251.846A.374.374,0,0,0,427.474,278.992Z" transform="translate(-426.875 -241.3)" fill="#e66226"/>
            </g>
          </g>
          <g id="Group_310" data-name="Group 310" transform="translate(0 77.028)">
            <path id="Path_557" data-name="Path 557" d="M495.5,747.039c.219.016.454.063.689.063.438.016.438,0,.438.438,0,1.707-.016,3.414,0,5.121a1.916,1.916,0,0,0,1.6,2,5.886,5.886,0,0,0,1.66.094,2.076,2.076,0,0,0,1.863-1.378,5.611,5.611,0,0,0,.2-2.224h-1.613c-.031.5-.031.987-.11,1.472a.846.846,0,0,1-.36.532.968.968,0,0,1-1.519-.861c-.031-1.691-.016-3.367-.016-5.058a.3.3,0,0,1,.047-.141h2.772c.345,0,.485-.141.485-.486V746.1c0-.407-.11-.517-.5-.517h-2.349c-.438,0-.438,0-.438-.423v-1.221a.4.4,0,0,0-.438-.439h-.877c-.282,0-.407.141-.407.423v.908c0,.752,0,.752-.752.767-.329.016-.454.141-.454.47v.673a2.373,2.373,0,0,0-2.208-1.331,3.423,3.423,0,0,0-2.365.658.47.47,0,0,0-.564-.47c-.188.016-.36,0-.548,0-.564,0-.642.063-.642.626v7.61c0,.877,0,.877.877.877.846,0,.846,0,.846-.861.016-1.691,0-3.4.063-5.089a1.7,1.7,0,0,1,2.145-1.8.822.822,0,0,1,.83.814,4.833,4.833,0,0,1,0,.673c-.016.329.125.485.438.485.329,0,.642-.016.971,0,.235.016.3-.078.3-.3C495.536,748.073,495.52,747.524,495.5,747.039Z" transform="translate(-452.129 -741.872)" fill="#424143"/>
            <path id="Path_558" data-name="Path 558" d="M643.819,740.394v5.2c0,.407.11.5.517.5h.673c.626,0,.658-.031.658-.642V733.786c0-.36-.125-.486-.47-.486h-.8c-.454,0-.579.11-.579.564v4.854h-6.671V733.77c0-.344-.125-.47-.454-.47h-.94c-.313,0-.454.141-.454.454v11.932c0,.3.141.423.438.423h.908c.407,0,.5-.094.5-.517v-5.183C639.387,740.394,641.579,740.394,643.819,740.394Z" transform="translate(-575.435 -733.269)" fill="#424143"/>
            <path id="Path_559" data-name="Path 559" d="M255.148,744.265c0-.157-.016-.282-.016-.407V740.6c0-.454,0-.454.454-.454h5.2c.47,0,.579-.109.579-.6v-.517c0-.438-.11-.548-.548-.548h-5.324c-.2,0-.36,0-.36-.282q.024-1.6,0-3.194c0-.219.094-.282.3-.266.329.016.673,0,1,0h4.682c.407,0,.532-.125.532-.532v-.579c0-.407-.125-.532-.532-.532h-7.282c-.407,0-.532.125-.532.548v11.729c0,.423.11.532.532.532h7.391c.313,0,.438-.141.438-.454v-.642c0-.438-.125-.548-.548-.548h-5.966Z" transform="translate(-253.253 -733.1)" fill="#424143"/>
            <path id="Path_560" data-name="Path 560" d="M574.763,762.139c0,.329-.016.642,0,.955a2.083,2.083,0,0,0,1.816,2.192,5.867,5.867,0,0,0,.893.141,10.84,10.84,0,0,0,3.336-.156,1.943,1.943,0,0,0,1.581-1.472,4.523,4.523,0,0,0,.125-1.378,2.281,2.281,0,0,0-2.192-2.38c-.846-.11-1.691-.11-2.537-.157s-1.1-.3-1.159-1.143c-.047-.689.141-.986.814-1.034a15.083,15.083,0,0,1,2.224-.016c.767.047.783.125.893.908.031.219.125.36.36.376.329,0,.673.016,1,0a.375.375,0,0,0,.376-.391,1.933,1.933,0,0,0-1.268-2.036,5.02,5.02,0,0,0-1.425-.36,10.078,10.078,0,0,0-3.21.157,1.761,1.761,0,0,0-1.441,1.5,5.691,5.691,0,0,0-.094,1.159,2.123,2.123,0,0,0,2.13,2.349,24.2,24.2,0,0,0,2.6.188c.877.031,1.206.345,1.174,1.221a1.88,1.88,0,0,1-.047.313.743.743,0,0,1-.7.752,21.015,21.015,0,0,1-2.427.078c-.83-.063-1-.344-1.018-1.19v-.564C575.937,762.139,575.389,762.139,574.763,762.139Z" transform="translate(-524.371 -752.524)" fill="#424143"/>
            <path id="Path_561" data-name="Path 561" d="M720.845,765.418c.047.532.094.58.611.58h.579c.454,0,.548-.094.548-.548V757.4c0-.376-.11-.485-.5-.5h-.736c-.392,0-.5.11-.5.5v2.255c0,1.049.016,2.083-.031,3.132-.031,1-.407,1.55-1.221,1.691a7.81,7.81,0,0,1-1.817.063.853.853,0,0,1-.861-.877,7.374,7.374,0,0,1-.063-.83v-5.418c0-.407-.109-.517-.5-.517h-.7c-.423,0-.5.078-.5.486v1.284c0,1.582-.031,3.163.016,4.745a2.6,2.6,0,0,0,2.333,2.646A4.355,4.355,0,0,0,720.845,765.418Z" transform="translate(-642.768 -753.173)" fill="#424143"/>
            <path id="Path_562" data-name="Path 562" d="M313.271,759.535c-.078-.125-.141-.2-.2-.3-.485-.783-.971-1.55-1.425-2.333a.484.484,0,0,0-.517-.282q-.517.024-1.033,0c-.172,0-.345,0-.376.2a.671.671,0,0,0,.063.391c.783,1.175,1.566,2.333,2.365,3.492a.388.388,0,0,1-.016.532c-.893,1.284-1.785,2.584-2.678,3.868a.35.35,0,0,0-.078.423c.11.188.235.172.407.172.344,0,.689-.016,1.034,0a.473.473,0,0,0,.485-.266c.36-.58.736-1.143,1.112-1.707.266-.423.548-.83.846-1.3.11.157.188.266.251.376.392.6.783,1.206,1.174,1.816.235.36.407.846.736,1.018.345.188.861.047,1.3.063.157,0,.36.031.392-.188a.757.757,0,0,0-.063-.423c-.861-1.3-1.738-2.584-2.631-3.868a.479.479,0,0,1-.016-.642c.8-1.127,1.566-2.255,2.333-3.4a.351.351,0,0,0-.3-.579c-.36-.031-.736,0-1.1-.016a.432.432,0,0,0-.439.25c-.47.783-.955,1.566-1.425,2.333C313.412,759.3,313.349,759.409,313.271,759.535Z" transform="translate(-300.508 -752.911)" fill="#424143"/>
            <path id="Path_563" data-name="Path 563" d="M495.589,746.87c.016.485.047,1.034.078,1.566.016.219-.063.313-.3.3-.329-.016-.642,0-.971,0-.313,0-.454-.157-.438-.486,0-.219.016-.454,0-.673a.822.822,0,0,0-.83-.814,1.715,1.715,0,0,0-2.145,1.8c-.063,1.691-.047,3.4-.063,5.089,0,.861,0,.861-.846.861-.877,0-.877,0-.877-.877v-7.61c0-.564.063-.626.642-.626.188,0,.36.016.548,0a.461.461,0,0,1,.564.47,3.423,3.423,0,0,1,2.365-.658,2.428,2.428,0,0,1,2.208,1.331v-.673c0-.344.125-.47.454-.47.752-.016.752-.016.752-.767v-.908c0-.282.125-.423.407-.423h.877a.4.4,0,0,1,.439.438v1.222c0,.423,0,.423.438.423h2.349c.407,0,.5.11.5.517v.517c0,.344-.141.485-.485.485h-2.772a1.441,1.441,0,0,0-.047.141c0,1.691-.016,3.367.016,5.058a.972.972,0,0,0,1.519.861.806.806,0,0,0,.36-.532,14.411,14.411,0,0,0,.11-1.472h1.613a5.915,5.915,0,0,1-.2,2.224,2.076,2.076,0,0,1-1.863,1.378,5.893,5.893,0,0,1-1.66-.094,1.9,1.9,0,0,1-1.6-2c-.016-1.707,0-3.414,0-5.121,0-.438,0-.423-.438-.438A2.6,2.6,0,0,1,495.589,746.87Z" transform="translate(-452.213 -741.703)" fill="#424143"/>
            <path id="Path_564" data-name="Path 564" d="M643.819,740.309h-6.671v5.183c0,.407-.094.517-.5.517h-.908c-.282,0-.438-.125-.438-.423V733.654c0-.313.141-.454.454-.454h.94c.329,0,.454.141.454.47v4.948h6.671v-4.854c0-.454.11-.564.579-.564h.8c.36,0,.47.125.47.485v11.666c0,.611-.031.642-.658.642h-.673c-.407,0-.517-.11-.517-.5v-5.183Z" transform="translate(-575.435 -733.184)" fill="#424143"/>
            <path id="Path_565" data-name="Path 565" d="M254.895,744.265h5.919c.438,0,.548.125.548.548v.642c0,.313-.125.454-.438.454h-7.391c-.423,0-.532-.11-.532-.532V733.648c0-.423.125-.548.532-.548h7.281c.407,0,.532.125.532.532v.579c0,.407-.125.532-.532.532H255.13c-.2,0-.3.047-.3.266,0,1.065.016,2.13,0,3.194,0,.282.157.282.36.282h5.324c.454,0,.548.094.548.548v.517c0,.486-.11.6-.579.6h-5.2c-.454,0-.454,0-.454.454v3.257A1.587,1.587,0,0,1,254.895,744.265Z" transform="translate(-253 -733.1)" fill="#424143"/>
            <path id="Path_566" data-name="Path 566" d="M367.407,764.678v3.68c0,.517-.063.579-.564.579H366.2c-.36,0-.5-.141-.5-.5V756.661c0-.454.094-.548.548-.548h.548c.548,0,.579.031.658.579a3.426,3.426,0,0,1,1.691-.658,6.506,6.506,0,0,1,2.271.11,2.419,2.419,0,0,1,1.848,1.879,10.943,10.943,0,0,1,.031,5.23,2.515,2.515,0,0,1-2.3,2.02,5.622,5.622,0,0,1-2.552-.141A9.474,9.474,0,0,1,367.407,764.678Zm4.385-3.946h-.063V759.6c0-.188-.047-.36-.063-.548-.11-.924-.376-1.331-1.081-1.441a8.49,8.49,0,0,0-1.785-.031,1.229,1.229,0,0,0-1.206,1.159,11.121,11.121,0,0,0,0,3.742,1.287,1.287,0,0,0,1.08,1.206,6.838,6.838,0,0,0,1.691.063c.83-.094,1.112-.376,1.253-1.221C371.713,761.953,371.744,761.343,371.791,760.732Z" transform="translate(-348.052 -752.401)" fill="#424143"/>
            <path id="Path_567" data-name="Path 567" d="M778.307,737.528a4.85,4.85,0,0,1,3.586-.6,2.515,2.515,0,0,1,2.286,2,11.189,11.189,0,0,1,.047,5.042,2.559,2.559,0,0,1-2.192,2.114,5.756,5.756,0,0,1-2.584-.031,11.778,11.778,0,0,1-1.112-.454c-.063.423-.141.485-.6.485h-.7c-.282,0-.438-.125-.438-.423V733.723c0-.3.157-.423.438-.423h.83c.313,0,.438.141.438.454v3.774Zm0,4.134c.063.548.141,1.284.25,2.02a1.064,1.064,0,0,0,.861.893,4.813,4.813,0,0,0,2,.063,1.181,1.181,0,0,0,1.049-1.018,10.736,10.736,0,0,0-.016-4.181,1.1,1.1,0,0,0-.971-.94,6.847,6.847,0,0,0-1.6-.047c-.971.11-1.315.5-1.456,1.472C778.37,740.409,778.354,740.942,778.307,741.662Z" transform="translate(-694.608 -733.269)" fill="#424143"/>
            <path id="Path_568" data-name="Path 568" d="M427.526,761.006c.11.689.2,1.315.313,1.926a.666.666,0,0,0,.532.548,5.965,5.965,0,0,0,1.034.188,16.078,16.078,0,0,0,1.738-.063c.626-.063.83-.313.861-.955s.047-.658.689-.658h.987A2.335,2.335,0,0,1,431.989,765a9.651,9.651,0,0,1-3.962.031,2.325,2.325,0,0,1-1.989-1.973,13.058,13.058,0,0,1-.047-4.87,2.526,2.526,0,0,1,2.333-2.255,10.173,10.173,0,0,1,3.3.063,2.247,2.247,0,0,1,1.957,2.02,24.111,24.111,0,0,1,.157,2.6c.016.282-.188.36-.454.36h-5.262A2.082,2.082,0,0,1,427.526,761.006Zm2.286-1.456h1.926c.2,0,.3-.063.266-.282-.047-.36-.078-.72-.141-1.081a.8.8,0,0,0-.642-.658,5.79,5.79,0,0,0-2.74,0,.869.869,0,0,0-.689.689c-.078.344-.11.689-.172,1.049-.047.235.063.3.282.3C428.544,759.534,429.17,759.55,429.812,759.55Z" transform="translate(-398.728 -752.268)" fill="#424143"/>
            <path id="Path_569" data-name="Path 569" d="M574.716,762.018H576.5v.564c.016.846.188,1.127,1.018,1.19a15.72,15.72,0,0,0,2.427-.078.743.743,0,0,0,.7-.752c.016-.11.031-.219.047-.313.031-.893-.282-1.19-1.175-1.221a24.167,24.167,0,0,1-2.6-.188,2.131,2.131,0,0,1-2.13-2.349,5.867,5.867,0,0,1,.094-1.159,1.761,1.761,0,0,1,1.441-1.5,9.62,9.62,0,0,1,3.21-.157,5.012,5.012,0,0,1,1.425.36,1.951,1.951,0,0,1,1.268,2.036c-.016.251-.125.391-.376.391-.329.016-.673.016-1,0-.235,0-.329-.141-.36-.376-.094-.783-.125-.846-.893-.908a15.022,15.022,0,0,0-2.224.016c-.673.063-.861.344-.814,1.033.063.846.3,1.1,1.159,1.143.846.047,1.707.047,2.537.157a2.281,2.281,0,0,1,2.192,2.38,5.142,5.142,0,0,1-.125,1.378,1.922,1.922,0,0,1-1.582,1.472,10.843,10.843,0,0,1-3.336.157,5.862,5.862,0,0,1-.893-.141,2.081,2.081,0,0,1-1.817-2.192C574.7,762.66,574.716,762.346,574.716,762.018Z" transform="translate(-524.324 -752.403)" fill="#424143"/>
            <path id="Path_570" data-name="Path 570" d="M720.845,765.334a4.282,4.282,0,0,1-3.351.626,2.576,2.576,0,0,1-2.333-2.646c-.047-1.582-.016-3.163-.016-4.745v-1.284c0-.407.078-.486.5-.486h.7c.407,0,.5.11.5.517v5.418a7.37,7.37,0,0,0,.063.83.872.872,0,0,0,.861.877,8.776,8.776,0,0,0,1.817-.063c.814-.141,1.174-.689,1.221-1.691.031-1.034.016-2.083.031-3.132V757.3c0-.392.11-.5.5-.5h.736c.391,0,.5.11.5.5v8.049c0,.438-.094.548-.548.548h-.579C720.954,765.9,720.892,765.851,720.845,765.334Z" transform="translate(-642.768 -753.089)" fill="#424143"/>
            <path id="Path_571" data-name="Path 571" d="M313.233,759.7c.078-.125.141-.235.2-.329.47-.783.955-1.55,1.425-2.333a.432.432,0,0,1,.438-.251c.36.016.736-.016,1.1.016a.45.45,0,0,1,.345.188.444.444,0,0,1-.047.392c-.767,1.143-1.535,2.286-2.333,3.4a.463.463,0,0,0,.016.642c.893,1.284,1.754,2.568,2.631,3.868a.559.559,0,0,1,.063.423c-.031.219-.219.188-.391.188a2.965,2.965,0,0,1-1.3-.063c-.329-.172-.5-.658-.736-1.018-.391-.6-.783-1.206-1.174-1.817-.078-.11-.157-.219-.251-.376-.3.454-.579.877-.846,1.3-.376.564-.752,1.127-1.112,1.707a.485.485,0,0,1-.485.266c-.345-.016-.689,0-1.034,0-.157,0-.3.016-.407-.172s-.016-.3.078-.423c.893-1.284,1.77-2.584,2.678-3.868a.388.388,0,0,0,.016-.532c-.8-1.159-1.582-2.318-2.365-3.492a.652.652,0,0,1-.063-.391c.031-.2.2-.2.376-.2.345,0,.689.016,1.034,0a.484.484,0,0,1,.517.282c.47.783.955,1.55,1.425,2.333A1.448,1.448,0,0,1,313.233,759.7Z" transform="translate(-300.471 -753.08)" fill="#424143"/>
          </g>
        </g>
        <path id="Path_572" data-name="Path 572" d="M827.1,670.608a5.222,5.222,0,0,1,1.472-3.774,4.939,4.939,0,0,1,7.156,0,5.594,5.594,0,0,1,0,7.563,4.9,4.9,0,0,1-7.156,0A5.3,5.3,0,0,1,827.1,670.608Zm.861,0a4.434,4.434,0,0,0,1.221,3.179,4.037,4.037,0,0,0,5.935,0,4.727,4.727,0,0,0,0-6.342,4.071,4.071,0,0,0-5.935,0A4.423,4.423,0,0,0,827.961,670.608Zm3.163.532v2.412H830.06v-6.044h1.989a2.714,2.714,0,0,1,1.691.47,1.615,1.615,0,0,1,.611,1.362,1.357,1.357,0,0,1-.235.783,1.757,1.757,0,0,1-.689.548,1.28,1.28,0,0,1,.673.564,1.814,1.814,0,0,1,.2.908v.391a4.878,4.878,0,0,0,.031.517,1.205,1.205,0,0,0,.094.376v.109h-1.1a1.376,1.376,0,0,1-.078-.438c-.016-.188-.016-.391-.016-.6v-.36a1.03,1.03,0,0,0-.235-.752,1.089,1.089,0,0,0-.783-.235h-1.1Zm0-.924H832.2a1.29,1.29,0,0,0,.783-.235.727.727,0,0,0,.329-.626.87.87,0,0,0-.282-.736,1.714,1.714,0,0,0-.986-.2h-.94v1.8Z" transform="translate(-737.2 -598.889)" fill="#e66226"/>
      </g>
    </g>
  </g>
</svg>
