<svg xmlns="http://www.w3.org/2000/svg" xmlns:xlink="http://www.w3.org/1999/xlink" width="35" height="35" viewBox="0 0 35 35">
  <defs>
    <clipPath id="clip-Training_Offering">
      <rect width="35" height="35"/>
    </clipPath>
  </defs>
  <g id="Training_Offering" data-name="Training Offering" clip-path="url(#clip-Training_Offering)">
    <g id="Group_171" data-name="Group 171" transform="translate(0 1)">
      <path id="Path_193" data-name="Path 193" d="M-1333.892,109.4a9.122,9.122,0,0,1-1.113.964,2.1,2.1,0,0,1-3.375-1.876c-.015-3.082,0-6.164,0-9.247,0-1.262.009-1.262-1.217-1.3-1.117-.033-1.533-.444-1.536-1.577-.007-2.563-.009-5.127.009-7.69.01-1.5.819-2.237,2.337-2.344a3.032,3.032,0,0,1,2.795,1.092c1.352,1.564,2.407,1.488,3.8-.222a2.26,2.26,0,0,1,2.027-.877c3.021.037,6.042.023,9.064.012.683,0,1.3.07,1.552.828a2.646,2.646,0,0,1-.27,2.609c-.176.22-.658.27-1,.273-2.624.022-5.25.052-7.873-.007-.884-.02-1.064.3-1.06,1.1.028,5.676.009,11.352.017,17.028,0,1-.163,1.907-1.223,2.331a2.315,2.315,0,0,1-2.751-.86C-1333.764,109.574-1333.816,109.5-1333.892,109.4Z" transform="translate(1341.134 -77.805)" fill="#fff"/>
      <path id="Path_194" data-name="Path 194" d="M-1123.714-22.959q0,4.625,0,9.249c0,1.8-.835,2.7-2.6,2.7-6.044.014-12.089,0-18.133.021-.683,0-.905-.216-.887-.9.049-1.825-.266-1.672,1.651-1.674q7.326-.008,14.653,0c2.054,0,2.61-.565,2.609-2.6q0-6.822,0-13.645c0-1.848-.74-2.589-2.619-2.59-5.036,0-10.073-.021-15.11.018-.893.007-1.253-.18-1.2-1.154.1-1.716-.271-1.6,1.635-1.611,1.007,0,2.017.036,3.021-.025a1.03,1.03,0,0,0,.781-.511,1.97,1.97,0,0,1,1.925-1.546,7.116,7.116,0,0,1,2.426.158,2.241,2.241,0,0,1,1.2,1.2.95.95,0,0,0,1.046.731c2.167-.025,4.335-.017,6.5-.006,2.247.012,3.1.893,3.1,3.111C-1123.721-29-1123.713-25.981-1123.714-22.959Z" transform="translate(1158.711 37.331)" fill="#fff"/>
      <path id="Path_195" data-name="Path 195" d="M-1289.2-31.268a3.554,3.554,0,0,1-3.617-3.666,3.633,3.633,0,0,1,3.748-3.471,3.653,3.653,0,0,1,3.59,3.646A3.612,3.612,0,0,1-1289.2-31.268Z" transform="translate(1296.118 38.406)" fill="#fff"/>
      <path id="Path_196" data-name="Path 196" d="M-1102.8,359.874c-.954,1.03-1.887,1.915-2.672,2.917a2.736,2.736,0,0,1-3.159,1.032c.18-.249.324-.488.507-.694,1.275-1.438,2.549-2.877,3.842-4.3a2.259,2.259,0,0,1,2.674-.246c1.688,1.747,3.313,3.554,5.062,5.446-1.3.2-2.3.208-3.148-.853C-1100.607,362.039-1101.692,361.042-1102.8,359.874Z" transform="translate(1124.504 -331.174)" fill="#fff"/>
    </g>
  </g>
</svg>
